<mxfile host="app.diagrams.net" agent="Mozilla/5.0 (X11; Linux x86_64) AppleWebKit/537.36 (KHTML, like Gecko) Chrome/131.0.0.0 Safari/537.36" version="25.0.3">
  <diagram name="Página-1" id="j6DcgAvVnX-xqiXn2xah">
    <mxGraphModel dx="1434" dy="793" grid="1" gridSize="10" guides="1" tooltips="1" connect="1" arrows="1" fold="1" page="1" pageScale="1" pageWidth="850" pageHeight="1100" background="#FFB570" math="0" shadow="0">
      <root>
        <mxCell id="0" />
        <mxCell id="1" parent="0" />
        <mxCell id="cbMW0YtpIEeJVtQuoa_I-56" value="Fuentes de Datos" style="whiteSpace=wrap;strokeWidth=2;labelBackgroundColor=none;" vertex="1" parent="1">
          <mxGeometry x="274" y="20" width="186" height="47" as="geometry" />
        </mxCell>
        <mxCell id="cbMW0YtpIEeJVtQuoa_I-57" value="API de Yelp&#xa;&#xa;" style="whiteSpace=wrap;strokeWidth=2;labelBackgroundColor=none;" vertex="1" parent="1">
          <mxGeometry x="128" y="117" width="143" height="47" as="geometry" />
        </mxCell>
        <mxCell id="cbMW0YtpIEeJVtQuoa_I-58" value="API de Google Maps" style="whiteSpace=wrap;strokeWidth=2;labelBackgroundColor=none;" vertex="1" parent="1">
          <mxGeometry x="321" y="117" width="208" height="47" as="geometry" />
        </mxCell>
        <mxCell id="cbMW0YtpIEeJVtQuoa_I-59" value="Google Drive" style="whiteSpace=wrap;strokeWidth=2;labelBackgroundColor=none;" vertex="1" parent="1">
          <mxGeometry x="579" y="117" width="153" height="47" as="geometry" />
        </mxCell>
        <mxCell id="cbMW0YtpIEeJVtQuoa_I-60" value="Procesamiento de Datos" style="whiteSpace=wrap;strokeWidth=2;labelBackgroundColor=none;" vertex="1" parent="1">
          <mxGeometry x="252" y="214" width="235" height="47" as="geometry" />
        </mxCell>
        <mxCell id="cbMW0YtpIEeJVtQuoa_I-61" value="Apache Spark" style="whiteSpace=wrap;strokeWidth=2;labelBackgroundColor=none;" vertex="1" parent="1">
          <mxGeometry x="121" y="311" width="162" height="47" as="geometry" />
        </mxCell>
        <mxCell id="cbMW0YtpIEeJVtQuoa_I-62" value="Python y Pandas" style="whiteSpace=wrap;strokeWidth=2;labelBackgroundColor=none;" vertex="1" parent="1">
          <mxGeometry x="332" y="311" width="181" height="47" as="geometry" />
        </mxCell>
        <mxCell id="cbMW0YtpIEeJVtQuoa_I-63" value="Google Cloud BigQuery" style="whiteSpace=wrap;strokeWidth=2;labelBackgroundColor=none;" vertex="1" parent="1">
          <mxGeometry x="563" y="311" width="229" height="47" as="geometry" />
        </mxCell>
        <mxCell id="cbMW0YtpIEeJVtQuoa_I-64" value="Exploración y Análisis de Datos" style="whiteSpace=wrap;strokeWidth=2;labelBackgroundColor=none;" vertex="1" parent="1">
          <mxGeometry x="349" y="408" width="237" height="65" as="geometry" />
        </mxCell>
        <mxCell id="cbMW0YtpIEeJVtQuoa_I-65" value="NumPy" style="whiteSpace=wrap;strokeWidth=2;labelBackgroundColor=none;" vertex="1" parent="1">
          <mxGeometry x="20" y="523" width="112" height="47" as="geometry" />
        </mxCell>
        <mxCell id="cbMW0YtpIEeJVtQuoa_I-66" value="Matplotlib y Seaborn" style="whiteSpace=wrap;strokeWidth=2;labelBackgroundColor=none;" vertex="1" parent="1">
          <mxGeometry x="182" y="523" width="206" height="47" as="geometry" />
        </mxCell>
        <mxCell id="cbMW0YtpIEeJVtQuoa_I-67" value="Plotly" style="whiteSpace=wrap;strokeWidth=2;labelBackgroundColor=none;" vertex="1" parent="1">
          <mxGeometry x="438" y="523" width="99" height="47" as="geometry" />
        </mxCell>
        <mxCell id="cbMW0YtpIEeJVtQuoa_I-68" value="Scikit-learn para EDA" style="whiteSpace=wrap;strokeWidth=2;labelBackgroundColor=none;" vertex="1" parent="1">
          <mxGeometry x="587" y="523" width="213" height="47" as="geometry" />
        </mxCell>
        <mxCell id="cbMW0YtpIEeJVtQuoa_I-69" value="Machine Learning" style="whiteSpace=wrap;strokeWidth=2;labelBackgroundColor=none;" vertex="1" parent="1">
          <mxGeometry x="600" y="620" width="187" height="47" as="geometry" />
        </mxCell>
        <mxCell id="cbMW0YtpIEeJVtQuoa_I-70" value="Scikit-learn para Modelos" style="whiteSpace=wrap;strokeWidth=2;labelBackgroundColor=none;" vertex="1" parent="1">
          <mxGeometry x="47" y="717" width="241" height="47" as="geometry" />
        </mxCell>
        <mxCell id="cbMW0YtpIEeJVtQuoa_I-71" value="NLTK y SpaCy" style="whiteSpace=wrap;strokeWidth=2;labelBackgroundColor=none;" vertex="1" parent="1">
          <mxGeometry x="520" y="717" width="165" height="47" as="geometry" />
        </mxCell>
        <mxCell id="cbMW0YtpIEeJVtQuoa_I-72" value="Pickle" style="whiteSpace=wrap;strokeWidth=2;labelBackgroundColor=none;" vertex="1" parent="1">
          <mxGeometry x="735" y="717" width="103" height="47" as="geometry" />
        </mxCell>
        <mxCell id="cbMW0YtpIEeJVtQuoa_I-73" value="Hugging Face BERT" style="whiteSpace=wrap;strokeWidth=2;labelBackgroundColor=none;" vertex="1" parent="1">
          <mxGeometry x="887" y="717" width="207" height="47" as="geometry" />
        </mxCell>
        <mxCell id="cbMW0YtpIEeJVtQuoa_I-74" value="Implementación" style="whiteSpace=wrap;strokeWidth=2;labelBackgroundColor=none;" vertex="1" parent="1">
          <mxGeometry x="559" y="814" width="173" height="47" as="geometry" />
        </mxCell>
        <mxCell id="cbMW0YtpIEeJVtQuoa_I-75" value="Google Cloud Run" style="whiteSpace=wrap;strokeWidth=2;labelBackgroundColor=none;" vertex="1" parent="1">
          <mxGeometry x="305" y="911" width="192" height="47" as="geometry" />
        </mxCell>
        <mxCell id="cbMW0YtpIEeJVtQuoa_I-76" value="Google Cloud Build" style="whiteSpace=wrap;strokeWidth=2;labelBackgroundColor=none;" vertex="1" parent="1">
          <mxGeometry x="547" y="911" width="198" height="47" as="geometry" />
        </mxCell>
        <mxCell id="cbMW0YtpIEeJVtQuoa_I-77" value="Visualización" style="whiteSpace=wrap;strokeWidth=2;labelBackgroundColor=none;" vertex="1" parent="1">
          <mxGeometry x="569" y="1008" width="153" height="47" as="geometry" />
        </mxCell>
        <mxCell id="cbMW0YtpIEeJVtQuoa_I-78" value="Power BI" style="whiteSpace=wrap;strokeWidth=2;labelBackgroundColor=none;" vertex="1" parent="1">
          <mxGeometry x="391" y="1105" width="125" height="47" as="geometry" />
        </mxCell>
        <mxCell id="cbMW0YtpIEeJVtQuoa_I-79" value="Looker Studio" style="whiteSpace=wrap;strokeWidth=2;labelBackgroundColor=none;" vertex="1" parent="1">
          <mxGeometry x="566" y="1105" width="159" height="47" as="geometry" />
        </mxCell>
        <mxCell id="cbMW0YtpIEeJVtQuoa_I-80" value="" style="curved=1;startArrow=none;endArrow=block;exitX=0.06;exitY=1;entryX=0.5;entryY=0;rounded=0;labelBackgroundColor=none;fontColor=default;" edge="1" parent="1" source="cbMW0YtpIEeJVtQuoa_I-56" target="cbMW0YtpIEeJVtQuoa_I-57">
          <mxGeometry relative="1" as="geometry">
            <Array as="points">
              <mxPoint x="200" y="92" />
            </Array>
          </mxGeometry>
        </mxCell>
        <mxCell id="cbMW0YtpIEeJVtQuoa_I-81" value="" style="curved=1;startArrow=none;endArrow=block;exitX=0.65;exitY=1;entryX=0.5;entryY=0;rounded=0;labelBackgroundColor=none;fontColor=default;" edge="1" parent="1" source="cbMW0YtpIEeJVtQuoa_I-56" target="cbMW0YtpIEeJVtQuoa_I-58">
          <mxGeometry relative="1" as="geometry">
            <Array as="points">
              <mxPoint x="425" y="92" />
            </Array>
          </mxGeometry>
        </mxCell>
        <mxCell id="cbMW0YtpIEeJVtQuoa_I-82" value="" style="curved=1;startArrow=none;endArrow=block;exitX=1;exitY=0.83;entryX=0.5;entryY=0;rounded=0;labelBackgroundColor=none;fontColor=default;" edge="1" parent="1" source="cbMW0YtpIEeJVtQuoa_I-56" target="cbMW0YtpIEeJVtQuoa_I-59">
          <mxGeometry relative="1" as="geometry">
            <Array as="points">
              <mxPoint x="655" y="92" />
            </Array>
          </mxGeometry>
        </mxCell>
        <mxCell id="cbMW0YtpIEeJVtQuoa_I-83" value="" style="curved=1;startArrow=none;endArrow=block;exitX=0.5;exitY=1;entryX=0.15;entryY=0;rounded=0;labelBackgroundColor=none;fontColor=default;" edge="1" parent="1" source="cbMW0YtpIEeJVtQuoa_I-57" target="cbMW0YtpIEeJVtQuoa_I-60">
          <mxGeometry relative="1" as="geometry">
            <Array as="points">
              <mxPoint x="200" y="189" />
            </Array>
          </mxGeometry>
        </mxCell>
        <mxCell id="cbMW0YtpIEeJVtQuoa_I-84" value="" style="curved=1;startArrow=none;endArrow=block;exitX=0.5;exitY=1;entryX=0.61;entryY=0;rounded=0;labelBackgroundColor=none;fontColor=default;" edge="1" parent="1" source="cbMW0YtpIEeJVtQuoa_I-58" target="cbMW0YtpIEeJVtQuoa_I-60">
          <mxGeometry relative="1" as="geometry">
            <Array as="points">
              <mxPoint x="425" y="189" />
            </Array>
          </mxGeometry>
        </mxCell>
        <mxCell id="cbMW0YtpIEeJVtQuoa_I-85" value="" style="curved=1;startArrow=none;endArrow=block;exitX=0.5;exitY=1;entryX=1;entryY=0.08;rounded=0;labelBackgroundColor=none;fontColor=default;" edge="1" parent="1" source="cbMW0YtpIEeJVtQuoa_I-59" target="cbMW0YtpIEeJVtQuoa_I-60">
          <mxGeometry relative="1" as="geometry">
            <Array as="points">
              <mxPoint x="655" y="189" />
            </Array>
          </mxGeometry>
        </mxCell>
        <mxCell id="cbMW0YtpIEeJVtQuoa_I-86" value="" style="curved=1;startArrow=none;endArrow=block;exitX=0.15;exitY=1;entryX=0.5;entryY=0;rounded=0;labelBackgroundColor=none;fontColor=default;" edge="1" parent="1" source="cbMW0YtpIEeJVtQuoa_I-60" target="cbMW0YtpIEeJVtQuoa_I-61">
          <mxGeometry relative="1" as="geometry">
            <Array as="points">
              <mxPoint x="202" y="286" />
            </Array>
          </mxGeometry>
        </mxCell>
        <mxCell id="cbMW0YtpIEeJVtQuoa_I-87" value="" style="curved=1;startArrow=none;endArrow=block;exitX=0.61;exitY=1;entryX=0.5;entryY=0;rounded=0;labelBackgroundColor=none;fontColor=default;" edge="1" parent="1" source="cbMW0YtpIEeJVtQuoa_I-60" target="cbMW0YtpIEeJVtQuoa_I-62">
          <mxGeometry relative="1" as="geometry">
            <Array as="points">
              <mxPoint x="423" y="286" />
            </Array>
          </mxGeometry>
        </mxCell>
        <mxCell id="cbMW0YtpIEeJVtQuoa_I-88" value="" style="curved=1;startArrow=none;endArrow=block;exitX=1;exitY=0.89;entryX=0.5;entryY=0;rounded=0;labelBackgroundColor=none;fontColor=default;" edge="1" parent="1" source="cbMW0YtpIEeJVtQuoa_I-60" target="cbMW0YtpIEeJVtQuoa_I-63">
          <mxGeometry relative="1" as="geometry">
            <Array as="points">
              <mxPoint x="678" y="286" />
            </Array>
          </mxGeometry>
        </mxCell>
        <mxCell id="cbMW0YtpIEeJVtQuoa_I-89" value="" style="curved=1;startArrow=none;endArrow=block;exitX=0.5;exitY=1;entryX=0;entryY=0.1;rounded=0;labelBackgroundColor=none;fontColor=default;" edge="1" parent="1" source="cbMW0YtpIEeJVtQuoa_I-61" target="cbMW0YtpIEeJVtQuoa_I-64">
          <mxGeometry relative="1" as="geometry">
            <Array as="points">
              <mxPoint x="202" y="383" />
            </Array>
          </mxGeometry>
        </mxCell>
        <mxCell id="cbMW0YtpIEeJVtQuoa_I-90" value="" style="curved=1;startArrow=none;endArrow=block;exitX=0.5;exitY=1;entryX=0.39;entryY=0;rounded=0;labelBackgroundColor=none;fontColor=default;" edge="1" parent="1" source="cbMW0YtpIEeJVtQuoa_I-62" target="cbMW0YtpIEeJVtQuoa_I-64">
          <mxGeometry relative="1" as="geometry">
            <Array as="points">
              <mxPoint x="423" y="383" />
            </Array>
          </mxGeometry>
        </mxCell>
        <mxCell id="cbMW0YtpIEeJVtQuoa_I-91" value="" style="curved=1;startArrow=none;endArrow=block;exitX=0.5;exitY=1;entryX=1;entryY=0;rounded=0;labelBackgroundColor=none;fontColor=default;" edge="1" parent="1" source="cbMW0YtpIEeJVtQuoa_I-63" target="cbMW0YtpIEeJVtQuoa_I-64">
          <mxGeometry relative="1" as="geometry">
            <Array as="points">
              <mxPoint x="678" y="383" />
            </Array>
          </mxGeometry>
        </mxCell>
        <mxCell id="cbMW0YtpIEeJVtQuoa_I-92" value="" style="curved=1;startArrow=none;endArrow=block;exitX=0;exitY=0.76;entryX=0.5;entryY=-0.01;rounded=0;labelBackgroundColor=none;fontColor=default;" edge="1" parent="1" source="cbMW0YtpIEeJVtQuoa_I-64" target="cbMW0YtpIEeJVtQuoa_I-65">
          <mxGeometry relative="1" as="geometry">
            <Array as="points">
              <mxPoint x="76" y="498" />
            </Array>
          </mxGeometry>
        </mxCell>
        <mxCell id="cbMW0YtpIEeJVtQuoa_I-93" value="" style="curved=1;startArrow=none;endArrow=block;exitX=0.07;exitY=0.99;entryX=0.5;entryY=-0.01;rounded=0;labelBackgroundColor=none;fontColor=default;" edge="1" parent="1" source="cbMW0YtpIEeJVtQuoa_I-64" target="cbMW0YtpIEeJVtQuoa_I-66">
          <mxGeometry relative="1" as="geometry">
            <Array as="points">
              <mxPoint x="285" y="498" />
            </Array>
          </mxGeometry>
        </mxCell>
        <mxCell id="cbMW0YtpIEeJVtQuoa_I-94" value="" style="curved=1;startArrow=none;endArrow=block;exitX=0.55;exitY=0.99;entryX=0.5;entryY=-0.01;rounded=0;labelBackgroundColor=none;fontColor=default;" edge="1" parent="1" source="cbMW0YtpIEeJVtQuoa_I-64" target="cbMW0YtpIEeJVtQuoa_I-67">
          <mxGeometry relative="1" as="geometry">
            <Array as="points">
              <mxPoint x="488" y="498" />
            </Array>
          </mxGeometry>
        </mxCell>
        <mxCell id="cbMW0YtpIEeJVtQuoa_I-95" value="" style="curved=1;startArrow=none;endArrow=block;exitX=1;exitY=0.96;entryX=0.5;entryY=-0.01;rounded=0;labelBackgroundColor=none;fontColor=default;" edge="1" parent="1" source="cbMW0YtpIEeJVtQuoa_I-64" target="cbMW0YtpIEeJVtQuoa_I-68">
          <mxGeometry relative="1" as="geometry">
            <Array as="points">
              <mxPoint x="694" y="498" />
            </Array>
          </mxGeometry>
        </mxCell>
        <mxCell id="cbMW0YtpIEeJVtQuoa_I-96" value="" style="curved=1;startArrow=none;endArrow=block;exitX=0.5;exitY=0.99;entryX=0.5;entryY=-0.01;rounded=0;labelBackgroundColor=none;fontColor=default;" edge="1" parent="1" source="cbMW0YtpIEeJVtQuoa_I-68" target="cbMW0YtpIEeJVtQuoa_I-69">
          <mxGeometry relative="1" as="geometry">
            <Array as="points" />
          </mxGeometry>
        </mxCell>
        <mxCell id="cbMW0YtpIEeJVtQuoa_I-97" value="" style="curved=1;startArrow=none;endArrow=block;exitX=0;exitY=0.67;entryX=0.5;entryY=-0.01;rounded=0;labelBackgroundColor=none;fontColor=default;" edge="1" parent="1" source="cbMW0YtpIEeJVtQuoa_I-69" target="cbMW0YtpIEeJVtQuoa_I-70">
          <mxGeometry relative="1" as="geometry">
            <Array as="points">
              <mxPoint x="167" y="692" />
            </Array>
          </mxGeometry>
        </mxCell>
        <mxCell id="cbMW0YtpIEeJVtQuoa_I-98" value="" style="curved=1;startArrow=none;endArrow=block;exitX=0.27;exitY=0.99;entryX=0.5;entryY=-0.01;rounded=0;labelBackgroundColor=none;fontColor=default;" edge="1" parent="1" source="cbMW0YtpIEeJVtQuoa_I-69" target="cbMW0YtpIEeJVtQuoa_I-71">
          <mxGeometry relative="1" as="geometry">
            <Array as="points">
              <mxPoint x="602" y="692" />
            </Array>
          </mxGeometry>
        </mxCell>
        <mxCell id="cbMW0YtpIEeJVtQuoa_I-99" value="" style="curved=1;startArrow=none;endArrow=block;exitX=0.74;exitY=0.99;entryX=0.49;entryY=-0.01;rounded=0;labelBackgroundColor=none;fontColor=default;" edge="1" parent="1" source="cbMW0YtpIEeJVtQuoa_I-69" target="cbMW0YtpIEeJVtQuoa_I-72">
          <mxGeometry relative="1" as="geometry">
            <Array as="points">
              <mxPoint x="786" y="692" />
            </Array>
          </mxGeometry>
        </mxCell>
        <mxCell id="cbMW0YtpIEeJVtQuoa_I-100" value="" style="curved=1;startArrow=none;endArrow=block;exitX=1;exitY=0.82;entryX=0.5;entryY=-0.01;rounded=0;labelBackgroundColor=none;fontColor=default;" edge="1" parent="1" source="cbMW0YtpIEeJVtQuoa_I-69" target="cbMW0YtpIEeJVtQuoa_I-73">
          <mxGeometry relative="1" as="geometry">
            <Array as="points">
              <mxPoint x="991" y="692" />
            </Array>
          </mxGeometry>
        </mxCell>
        <mxCell id="cbMW0YtpIEeJVtQuoa_I-101" value="" style="curved=1;startArrow=none;endArrow=block;exitX=0.5;exitY=0.99;entryX=0;entryY=0.31;rounded=0;labelBackgroundColor=none;fontColor=default;" edge="1" parent="1" source="cbMW0YtpIEeJVtQuoa_I-70" target="cbMW0YtpIEeJVtQuoa_I-74">
          <mxGeometry relative="1" as="geometry">
            <Array as="points">
              <mxPoint x="167" y="789" />
            </Array>
          </mxGeometry>
        </mxCell>
        <mxCell id="cbMW0YtpIEeJVtQuoa_I-102" value="" style="curved=1;startArrow=none;endArrow=block;exitX=0.5;exitY=0.99;entryX=0.38;entryY=-0.01;rounded=0;labelBackgroundColor=none;fontColor=default;" edge="1" parent="1" source="cbMW0YtpIEeJVtQuoa_I-71" target="cbMW0YtpIEeJVtQuoa_I-74">
          <mxGeometry relative="1" as="geometry">
            <Array as="points">
              <mxPoint x="602" y="789" />
            </Array>
          </mxGeometry>
        </mxCell>
        <mxCell id="cbMW0YtpIEeJVtQuoa_I-103" value="" style="curved=1;startArrow=none;endArrow=block;exitX=0.49;exitY=0.99;entryX=0.89;entryY=-0.01;rounded=0;labelBackgroundColor=none;fontColor=default;" edge="1" parent="1" source="cbMW0YtpIEeJVtQuoa_I-72" target="cbMW0YtpIEeJVtQuoa_I-74">
          <mxGeometry relative="1" as="geometry">
            <Array as="points">
              <mxPoint x="786" y="789" />
            </Array>
          </mxGeometry>
        </mxCell>
        <mxCell id="cbMW0YtpIEeJVtQuoa_I-104" value="" style="curved=1;startArrow=none;endArrow=block;exitX=0.5;exitY=0.99;entryX=1;entryY=0.23;rounded=0;labelBackgroundColor=none;fontColor=default;" edge="1" parent="1" source="cbMW0YtpIEeJVtQuoa_I-73" target="cbMW0YtpIEeJVtQuoa_I-74">
          <mxGeometry relative="1" as="geometry">
            <Array as="points">
              <mxPoint x="991" y="789" />
            </Array>
          </mxGeometry>
        </mxCell>
        <mxCell id="cbMW0YtpIEeJVtQuoa_I-105" value="" style="curved=1;startArrow=none;endArrow=block;exitX=0;exitY=0.86;entryX=0.5;entryY=-0.01;rounded=0;labelBackgroundColor=none;fontColor=default;" edge="1" parent="1" source="cbMW0YtpIEeJVtQuoa_I-74" target="cbMW0YtpIEeJVtQuoa_I-75">
          <mxGeometry relative="1" as="geometry">
            <Array as="points">
              <mxPoint x="401" y="886" />
            </Array>
          </mxGeometry>
        </mxCell>
        <mxCell id="cbMW0YtpIEeJVtQuoa_I-106" value="" style="curved=1;startArrow=none;endArrow=block;exitX=0.5;exitY=0.99;entryX=0.5;entryY=-0.01;rounded=0;labelBackgroundColor=none;fontColor=default;" edge="1" parent="1" source="cbMW0YtpIEeJVtQuoa_I-74" target="cbMW0YtpIEeJVtQuoa_I-76">
          <mxGeometry relative="1" as="geometry">
            <Array as="points" />
          </mxGeometry>
        </mxCell>
        <mxCell id="cbMW0YtpIEeJVtQuoa_I-107" value="" style="curved=1;startArrow=none;endArrow=block;exitX=0.5;exitY=0.99;entryX=0;entryY=0.17;rounded=0;labelBackgroundColor=none;fontColor=default;" edge="1" parent="1" source="cbMW0YtpIEeJVtQuoa_I-75" target="cbMW0YtpIEeJVtQuoa_I-77">
          <mxGeometry relative="1" as="geometry">
            <Array as="points">
              <mxPoint x="401" y="983" />
            </Array>
          </mxGeometry>
        </mxCell>
        <mxCell id="cbMW0YtpIEeJVtQuoa_I-108" value="" style="curved=1;startArrow=none;endArrow=block;exitX=0.5;exitY=0.99;entryX=0.5;entryY=-0.01;rounded=0;labelBackgroundColor=none;fontColor=default;" edge="1" parent="1" source="cbMW0YtpIEeJVtQuoa_I-76" target="cbMW0YtpIEeJVtQuoa_I-77">
          <mxGeometry relative="1" as="geometry">
            <Array as="points" />
          </mxGeometry>
        </mxCell>
        <mxCell id="cbMW0YtpIEeJVtQuoa_I-109" value="" style="curved=1;startArrow=none;endArrow=block;exitX=0;exitY=0.9;entryX=0.5;entryY=-0.01;rounded=0;labelBackgroundColor=none;fontColor=default;" edge="1" parent="1" source="cbMW0YtpIEeJVtQuoa_I-77" target="cbMW0YtpIEeJVtQuoa_I-78">
          <mxGeometry relative="1" as="geometry">
            <Array as="points">
              <mxPoint x="454" y="1080" />
            </Array>
          </mxGeometry>
        </mxCell>
        <mxCell id="cbMW0YtpIEeJVtQuoa_I-110" value="" style="curved=1;startArrow=none;endArrow=block;exitX=0.5;exitY=0.99;entryX=0.5;entryY=-0.01;rounded=0;labelBackgroundColor=none;fontColor=default;" edge="1" parent="1" source="cbMW0YtpIEeJVtQuoa_I-77" target="cbMW0YtpIEeJVtQuoa_I-79">
          <mxGeometry relative="1" as="geometry">
            <Array as="points" />
          </mxGeometry>
        </mxCell>
      </root>
    </mxGraphModel>
  </diagram>
</mxfile>
